<svg width="325" height="43" viewBox="0 0 325 43" fill="none" xmlns="http://www.w3.org/2000/svg">
<path d="M18.375 42.875V36.75H12.25V30.625H6.125V24.5H0V18.375H6.125V12.25H12.25V6.125H18.375V0H30.625V6.125H24.5V12.25H18.375V18.375H12.25V24.5H18.375V30.625H24.5V36.75H30.625V42.875H18.375ZM85.75 0V6.125H79.625V0H85.75ZM73.5 6.125H79.625V12.25H73.5V6.125ZM67.375 12.25H73.5V18.375H67.375V12.25ZM61.25 18.375H67.375V24.5H61.25V18.375ZM55.125 24.5H61.25V30.625H55.125V24.5ZM49 30.625H55.125V36.75H49V30.625ZM42.875 36.75H49V42.875H42.875V36.75ZM91.875 42.875V0H104.125V18.375H122.5V0H134.75V42.875H122.5V24.5H104.125V42.875H91.875ZM159.25 42.875V6.125H147V0H183.75V6.125H171.5V42.875H159.25ZM189.875 42.875V0H202.125V6.125H208.25V12.25H214.375V6.125H220.5V0H232.75V42.875H220.5V18.375H214.375V30.625H208.25V18.375H202.125V42.875H189.875ZM245 42.875V0H257.25V36.75H281.75V42.875H245ZM294 42.875V36.75H300.125V30.625H306.25V24.5H312.375V18.375H306.25V12.25H300.125V6.125H294V0H306.25V6.125H312.375V12.25H318.5V18.375H324.625V24.5H318.5V30.625H312.375V36.75H306.25V42.875H294Z" fill="black"/>
</svg>
